<svg width="146" height="56" viewBox="0 0 146 56" fill="none" xmlns="http://www.w3.org/2000/svg">
<path fill-rule="evenodd" clip-rule="evenodd" d="M0 23.691C0 20.5659 2.42901 18.0325 5.42535 18.0325H12.6169C15.6132 18.0325 18.0423 20.5659 18.0423 23.691V31.1916C18.0423 31.2133 18.0421 31.235 18.0419 31.2567H18.0422C18.0422 34.0559 20.218 36.3252 22.9019 36.3252C19.9649 36.336 17.5778 38.7807 17.4981 41.8263H17.4954C17.449 39.1152 15.3617 36.9236 12.7678 36.8518V36.848C12.7177 36.8494 12.6674 36.8501 12.6169 36.8501H5.42536C2.42902 36.8501 0 34.3167 0 31.1916V23.691ZM17.4961 41.9837C17.4961 38.8586 19.9252 36.3252 22.9215 36.3252H30.113C33.1094 36.3252 35.5384 38.8586 35.5384 41.9837V49.4843C35.5384 52.6095 33.1094 55.1429 30.113 55.1429H22.9215C19.9252 55.1429 17.4961 52.6095 17.4961 49.4844V41.9837Z" fill="#EEA676"/>
<path fill-rule="evenodd" clip-rule="evenodd" d="M17.769 5.65853C17.769 2.53341 20.1981 0 23.1944 0H30.3859C33.3823 0 35.8113 2.53341 35.8113 5.65852V13.1591C35.8113 13.1809 35.8112 13.2026 35.8109 13.2243H35.8114V13.2243C35.8114 16.0236 37.9871 18.2928 40.671 18.2929C40.6775 18.2929 40.684 18.2929 40.6906 18.2929H47.8821C50.8785 18.2929 53.3075 20.8263 53.3075 23.9514V31.452C53.3075 34.5771 50.8785 37.1105 47.8821 37.1105H40.6906C37.6942 37.1105 35.2652 34.5771 35.2652 31.452V23.9514C35.2652 22.7795 35.6068 21.6908 36.1918 20.7877C35.6331 21.6502 35.2964 22.682 35.2672 23.7939H35.2646C35.2181 21.0828 33.1307 18.8913 30.5369 18.8196V18.8156C31.9386 18.7756 33.2076 18.1811 34.1494 17.2349C33.1739 18.215 31.8474 18.8177 30.3859 18.8177H23.1944C20.1981 18.8177 17.769 16.2843 17.769 13.1591V5.65853Z" fill="#EEA676"/>
<path d="M67.7921 40.7196V40.3174L68.6368 39.9956C69.4948 39.647 69.9239 38.9632 69.9239 37.9443V16.9484C69.9239 15.8758 69.4948 15.1921 68.6368 14.8971L67.7921 14.5753V14.1731H78.4107C81.2531 14.1731 83.6932 14.7094 85.7311 15.782C87.7958 16.8277 89.3779 18.3428 90.4773 20.3271C91.6035 22.2845 92.1666 24.6442 92.1666 27.4061C92.1666 30.2217 91.5633 32.6216 90.3566 34.6059C89.15 36.5901 87.4607 38.1052 85.2887 39.1509C83.1435 40.1967 80.6095 40.7196 77.6867 40.7196H67.7921ZM75.9572 39.9152H77.6867C79.6174 39.9152 81.1726 39.5398 82.3525 38.7889C83.5323 38.0113 84.3904 36.7242 84.9267 34.9276C85.4898 33.1042 85.7713 30.6105 85.7713 27.4464C85.7713 24.2822 85.4898 21.8019 84.9267 20.0053C84.3904 18.1819 83.5457 16.8948 82.3927 16.144C81.2397 15.3664 79.7246 14.9775 77.8476 14.9775H75.9572V39.9152ZM103.341 41.3229C101.303 41.3229 99.5331 40.9073 98.0315 40.0761C96.5299 39.218 95.3634 38.0113 94.5322 36.4561C93.7277 34.9008 93.3255 33.0774 93.3255 30.9859C93.3255 28.8943 93.7546 27.0844 94.6126 25.5559C95.4975 24.0275 96.6908 22.8476 98.1924 22.0164C99.7208 21.1851 101.437 20.7695 103.341 20.7695C105.245 20.7695 106.947 21.1851 108.449 22.0164C109.951 22.8208 111.13 23.9873 111.989 25.5157C112.873 27.0441 113.316 28.8675 113.316 30.9859C113.316 33.1042 112.9 34.941 112.069 36.4963C111.265 38.0247 110.111 39.218 108.61 40.0761C107.135 40.9073 105.379 41.3229 103.341 41.3229ZM103.341 40.5185C104.279 40.5185 105.03 40.2503 105.593 39.7141C106.156 39.1778 106.559 38.2258 106.8 36.8583C107.068 35.4907 107.202 33.5601 107.202 31.0663C107.202 28.5458 107.068 26.6017 106.8 25.2341C106.559 23.8666 106.156 22.9147 105.593 22.3784C105.03 21.8421 104.279 21.5739 103.341 21.5739C102.402 21.5739 101.638 21.8421 101.048 22.3784C100.485 22.9147 100.069 23.8666 99.8013 25.2341C99.5599 26.6017 99.4393 28.5458 99.4393 31.0663C99.4393 33.5601 99.5599 35.4907 99.8013 36.8583C100.069 38.2258 100.485 39.1778 101.048 39.7141C101.638 40.2503 102.402 40.5185 103.341 40.5185ZM124.665 41.3229C122.841 41.3229 121.179 40.9341 119.677 40.1565C118.202 39.3521 117.023 38.199 116.138 36.6974C115.28 35.169 114.851 33.3054 114.851 31.1066C114.851 28.9346 115.32 27.0844 116.258 25.5559C117.224 24.0007 118.497 22.8208 120.079 22.0164C121.688 21.1851 123.445 20.7695 125.349 20.7695C126.904 20.7695 128.218 21.0242 129.29 21.5337C130.363 22.0432 131.181 22.7136 131.744 23.5448C132.307 24.3493 132.588 25.1939 132.588 26.0788C132.588 26.8296 132.361 27.4195 131.905 27.8486C131.449 28.2508 130.859 28.4519 130.135 28.4519C129.357 28.4519 128.727 28.1703 128.244 27.6072C127.762 27.0441 127.48 26.3067 127.4 25.395C127.373 24.8051 127.386 24.309 127.44 23.9068C127.494 23.4778 127.494 23.0487 127.44 22.6197C127.333 22.1639 127.158 21.8689 126.917 21.7348C126.703 21.5739 126.394 21.4935 125.992 21.4935C124.356 21.4935 123.083 22.2041 122.171 23.6253C121.286 25.0464 120.844 27.3123 120.844 30.4228C120.844 33.1311 121.34 35.2092 122.332 36.6572C123.351 38.0784 124.906 38.7889 126.998 38.7889C128.258 38.7889 129.277 38.561 130.054 38.1052C130.832 37.6493 131.583 36.9656 132.307 36.0539L132.709 36.3756C132.039 37.9577 131.006 39.1778 129.612 40.0358C128.218 40.8939 126.569 41.3229 124.665 41.3229Z" fill="white"/>
<path d="M139.165 41.3229C138.2 41.3229 137.382 40.9878 136.712 40.3174C136.041 39.647 135.706 38.8426 135.706 37.9041C135.706 36.9656 136.041 36.1477 136.712 35.4505C137.382 34.7533 138.2 34.4048 139.165 34.4048C140.131 34.4048 140.949 34.7533 141.619 35.4505C142.289 36.1477 142.624 36.9656 142.624 37.9041C142.624 38.8426 142.289 39.647 141.619 40.3174C140.949 40.9878 140.131 41.3229 139.165 41.3229Z" fill="#EEA676"/>
</svg>
